<?xml version="1.0" encoding="utf-8"?>
<!-- Generator: Adobe Illustrator 24.1.1, SVG Export Plug-In . SVG Version: 6.00 Build 0)  -->
<svg version="1.1" id="Layer_1" xmlns="http://www.w3.org/2000/svg" xmlns:xlink="http://www.w3.org/1999/xlink" x="0px" y="0px"
	 viewBox="0 0 512 512" style="enable-background:new 0 0 512 512;" xml:space="preserve">
<style type="text/css">
	.st0{fill:#333333;}
</style>
<g id="XMLID_2_">
	<path id="XMLID_12_" class="st0" d="M215.5,0c-20.5,0-36.7,16.2-36.7,36.7s17.1,36.7,36.7,36.7c20.5,0,36.7-16.2,36.7-36.7
		S235.9,0,215.5,0z M215.5,20.5c8.5,0,15.4,6.8,15.4,16.2s-6.8,16.2-15.4,16.2c-8.5,0-16.2-6.8-16.2-16.2S206.9,20.5,215.5,20.5z
		 M301.7,46.9c-29,0-52.9,23.9-52.9,52.9s23.9,52.9,52.9,52.9c29,0,52.9-23.9,52.9-52.9S331.5,46.9,301.7,46.9z M301.7,73.4
		c14.5,0,26.5,11.9,26.5,26.5s-11.9,26.5-26.5,26.5c-14.5,0-26.5-11.9-26.5-26.5C275.2,85.3,287.1,73.4,301.7,73.4z M197.5,88.7
		c-20.5,0-36.7,16.2-36.7,36.7s17.1,36.7,36.7,36.7c20.5,0,36.7-16.2,36.7-36.7C234.2,105.8,218,88.7,197.5,88.7z M197.5,110.9
		c8.5,0,14.5,6.8,14.5,14.5c0,8.5-6.8,14.5-14.5,14.5c-8.5,0-14.5-6.8-14.5-14.5C183,117.8,189,110.9,197.5,110.9z M190.7,173.2
		v116.9L78.1,512h355.8L322.1,290.1V173.2H190.7z M220.6,203.1h70.8V297L346,405.3H166L220.6,297C220.6,297,220.6,203.1,220.6,203.1
		z"/>
</g>
</svg>
