<?xml version="1.0" encoding="utf-8"?>
<!-- Generator: Adobe Illustrator 24.1.1, SVG Export Plug-In . SVG Version: 6.00 Build 0)  -->
<svg version="1.1" id="Layer_1" xmlns="http://www.w3.org/2000/svg" xmlns:xlink="http://www.w3.org/1999/xlink" x="0px" y="0px"
	 viewBox="0 0 512 512" style="enable-background:new 0 0 512 512;" xml:space="preserve">
<g>
	<path d="M326.33,0c-99.49,0-180.36,82.04-180.36,182.11c0,42.47,14.55,80.87,38.4,112.29L13.31,467.78
		c-9.89,10.47-9.89,26.76,0,36.65c5.23,5.23,11.64,7.56,18.03,7.56c6.98,0,13.38-2.33,18.62-7.56l171.06-173.38
		c29.67,21.52,65.74,33.74,104.73,33.74c99.49,0,180.36-82.04,180.36-182.11C506.11,82.62,425.81,0,326.33,0z M326.33,318.84
		c-73.89,0-133.82-61.09-133.82-136.14c0-75.06,59.93-136.15,133.82-136.15s133.82,61.09,133.82,136.15
		C460.14,257.74,400.22,318.84,326.33,318.84z M416.51,185.02c-1.16,9.89-9.89,17.45-19.78,17.45c-1.16,0-1.74,0-2.91,0
		c-11.05-1.74-18.61-11.64-17.45-22.69c4.07-30.26-29.67-45.97-31.41-46.55c-9.89-4.65-14.55-16.87-9.89-26.76
		c4.65-9.89,16.29-14.55,26.76-10.47C364.14,96.58,424.66,124.51,416.51,185.02z M374.04,229.24c4.07,4.07,6.98,10.47,6.98,16.29
		c0,6.4-2.33,12.22-6.98,16.29c-4.07,4.07-10.47,6.98-16.29,6.98c-5.82,0-12.22-2.33-16.3-6.98c-4.07-4.07-6.98-10.47-6.98-16.29
		c0-5.82,2.32-12.22,6.98-16.29c4.07-4.07,10.48-6.98,16.3-6.98C363.56,222.26,369.38,224.58,374.04,229.24z"/>
</g>
</svg>
